<svg id="Laag_1" data-name="Laag 1" xmlns="http://www.w3.org/2000/svg" viewBox="0 0 31.99 31.99"><defs><style>.cls-1,.cls-3{fill:#e5ff76;}.cls-1{stroke:#e5ff76;}.cls-1,.cls-2{stroke-miterlimit:10;}.cls-2,.cls-4{fill:#4923f4;}.cls-2{stroke:#4923f4;}</style></defs><rect class="cls-1" x="0.5" y="0.5" width="30.99" height="30.99"/><rect class="cls-2" x="0.5" y="0.5" width="24.92" height="24.92"/><path class="cls-3" d="M22.11,7,14.29,20.28H11.64L3.82,7H6.51l6.36,11.26h.19L19.42,7Z" transform="translate(0.03 0.01)"/><path class="cls-3" d="M21.65,7l-2.86,5.57H16.24L13.38,7h2.39l1.7,4h.09l2.28-3.35Z" transform="translate(0.03 0.01)"/><path class="cls-3" d="M6.05,7.62,8.33,11h.09l1.7-4h2.39L9.65,12.55H7.1L4.24,7Z" transform="translate(0.03 0.01)"/><path class="cls-4" d="M20.3,13.55V24.4H5.42V13.55H20.3m1-1H4.42V25.4H21.3V12.55Z" transform="translate(0.03 0.01)"/></svg>